<?xml version="1.0" encoding="utf-8"?>
<!-- Generator: Adobe Illustrator 25.2.3, SVG Export Plug-In . SVG Version: 6.00 Build 0)  -->
<svg version="1.1" id="Layer_1" xmlns="http://www.w3.org/2000/svg" xmlns:xlink="http://www.w3.org/1999/xlink" x="0px" y="0px"
	 viewBox="0 0 500 500" style="enable-background:new 0 0 500 500;" xml:space="preserve">
<style type="text/css">
	.st0{fill:#021859;}
	.st1{fill:#FFFFFF;}
	.st2{fill:#0455BF;}
	.st3{fill:#087EFF;}
</style>
<rect class="st1" width="500" height="500"/>
<g>
	<path class="st0" d="M281.8,198.87l20.31-22.95h-1.39l-19.68,22.24c-8.28,8.77-19.97,13.79-32.06,13.79h-27.08l-0.04,0.18
		c-0.01,0.07-0.02,0.14-0.03,0.21c-0.01,0.05-0.01,0.1-0.02,0.14c-0.01,0.06-0.02,0.13-0.03,0.19l-0.05,0.32h27.24
		C261.36,213,273.32,207.85,281.8,198.87z"/>
	<path class="st0" d="M284.08,200.32l21.59-24.39h-1.4l-20.97,23.69c-8.8,9.54-21.31,15.01-34.33,15.01H221.5l-0.02,0.19
		c-0.02,0.2-0.04,0.41-0.06,0.61l-0.02,0.24h27.57C262.28,215.67,275.08,210.08,284.08,200.32z"/>
	<path class="st0" d="M286.36,201.77l22.88-25.84h-1.4l-22.25,25.15c-9.32,10.31-22.67,16.22-36.61,16.22h-27.71l-0.01,0.21
		c-0.01,0.2-0.02,0.4-0.03,0.6l-0.01,0.23h27.76C263.21,218.34,276.84,212.3,286.36,201.77z"/>
	<path class="st0" d="M221.23,221.01h27.75c15.16,0,29.61-6.48,39.66-17.79l24.16-27.29h-1.4l-23.55,26.6l-0.21,0.24
		c-9.83,10.93-23.93,17.2-38.67,17.2h-27.76v0.22c0,0.2,0,0.4,0.01,0.6L221.23,221.01z"/>
	<path class="st0" d="M289.69,204.47c-10.35,11.54-25.19,18.17-40.72,18.17h-27.63l0.04,0.45c0.01,0.13,0.02,0.26,0.03,0.4l0.02,0.2
		h27.55c16.08,0,31.37-6.93,41.94-19.01l25.44-28.74h-1.4l-24.83,28.05L289.69,204.47z"/>
	<path class="st0" d="M248.97,225.3h-27.36l0.02,0.24c0.02,0.2,0.05,0.41,0.08,0.61l0.03,0.19h27.23c17.02,0,33.13-7.37,44.21-20.23
		l26.73-30.19h-1.39l-26.12,29.5C281.51,218.05,265.68,225.3,248.97,225.3z"/>
	<path class="st0" d="M293.96,207.7c-11.38,12.89-27.75,20.27-44.99,20.27h-26.96l0.22,1.04h26.73c17.94,0,34.89-7.82,46.49-21.45
		l27.69-31.27l0.32-0.37h-1.4l-27.4,30.95L293.96,207.7z"/>
	<path class="st0" d="M296.21,209.18L296.21,209.18c-11.9,13.64-29.09,21.45-47.24,21.45h-26.34l0.06,0.27
		c0.05,0.21,0.11,0.41,0.16,0.61l0.05,0.16h26.07c18.86,0,36.64-8.27,48.77-22.68l28.96-32.71l0.32-0.37h-1.39l-28.68,32.4
		L296.21,209.18z"/>
	<path class="st0" d="M298.49,210.63L298.49,210.63c-12.43,14.41-30.45,22.67-49.52,22.67h-25.54l0.36,1.04h25.18
		c19.79,0,38.4-8.71,51.05-23.89l30.25-34.16l0.32-0.37h-1.39l-29.97,33.84L298.49,210.63z"/>
	<path class="st0" d="M332.76,175.92l-31.25,35.29l-0.73,0.87h0.01c-12.95,15.19-31.81,23.89-51.81,23.89h-24.54l0.44,1.04h24.1
		c20.71,0,40.15-9.16,53.32-25.11l29.66-33.49l2.2-2.48H332.76z"/>
	<path class="st0" d="M262.82,324.97c-0.89,1.01-1.82,2-2.78,2.95c-12.71,12.72-29.63,19.73-47.62,19.73h-0.33
		c-17.86-0.08-34.66-7.09-47.29-19.73c-12.72-12.73-19.72-29.64-19.71-47.63c0.01-15.24,5.32-30.19,14.96-42.08
		c9.4-11.6,22.56-19.89,37.04-23.35l0.16-0.04l0.01-0.16c0.01-0.14,0.02-0.27,0.03-0.41c0-0.07,0.01-0.13,0.02-0.2l0.03-0.31
		l-0.3,0.07c-14.78,3.48-28.2,11.91-37.79,23.75c-9.79,12.08-15.18,27.26-15.19,42.74c-0.01,18.27,7.1,35.45,20.01,48.37
		c12.91,12.92,30.08,20.03,48.35,20.03h0.8l0.53,0l-0.01-0.01c17.77-0.34,34.45-7.43,47.03-20.02c0.96-0.95,1.91-1.96,2.82-2.99
		l55.51-62.68h-1.39L262.82,324.97z"/>
	<path class="st0" d="M260.82,323.21c-0.86,0.97-1.76,1.92-2.66,2.82c-12.21,12.22-28.45,18.95-45.73,18.95
		c-17.28,0-33.52-6.73-45.73-18.94c-12.21-12.22-18.94-28.47-18.93-45.75c0.01-14.71,4.9-28.58,14.13-40.11
		c8.87-11.07,21.31-19.07,35.05-22.52l0.16-0.04l0-0.17c0-0.21,0.01-0.41,0.02-0.62l0.01-0.29l-0.29,0.07
		c-14.02,3.49-26.72,11.62-35.77,22.92c-9.39,11.71-14.36,25.81-14.36,40.76c-0.01,17.56,6.82,34.06,19.23,46.48
		c12.41,12.41,28.91,19.25,46.47,19.25c17.56,0,34.06-6.84,46.47-19.25c0.86-0.85,1.76-1.81,2.68-2.84
		c0.03-0.03,0.07-0.08,0.13-0.15l53.84-60.8h-1.4l-52.87,59.7l-0.4,0.46L260.82,323.21z"/>
	<path class="st0" d="M259.26,320.95l-0.04,0.04l-0.12,0v0.09l-0.08,0v0.14l-0.1,0.11c-0.04,0.05-0.08,0.09-0.11,0.12
		c-0.8,0.9-1.65,1.81-2.54,2.7c-11.71,11.71-27.28,18.16-43.86,18.16c-16.55,0-32.11-6.45-43.83-18.16
		c-11.71-11.72-18.15-27.29-18.14-43.85c0.01-28.06,19.12-52.67,46.48-59.86l0.17-0.04l0-0.17c0-0.19,0-0.39,0-0.62v-0.29
		l-0.28,0.07c-27.9,7.26-47.39,32.31-47.4,60.91c-0.01,16.84,6.54,32.68,18.45,44.59c11.91,11.91,27.73,18.47,44.58,18.47
		c16.85,0,32.68-6.56,44.58-18.47c0.9-0.9,1.77-1.82,2.57-2.72c0.01-0.01,0.06-0.07,0.12-0.14l52.28-59.03h-1.39L259.26,320.95z"/>
	<path class="st0" d="M257.27,319.17l-0.24,0.28c-0.06,0.07-0.12,0.14-0.16,0.19l-0.05,0.06c-0.75,0.85-1.57,1.72-2.42,2.57
		c-11.2,11.21-26.1,17.38-41.96,17.38c-15.85,0-30.75-6.17-41.96-17.38c-11.2-11.21-17.37-26.12-17.37-41.97
		c0.02-26.56,18.06-50.04,43.89-57.11l0.17-0.05l-0.01-0.18c-0.01-0.18-0.02-0.37-0.03-0.61l-0.01-0.28l-0.27,0.07
		c-26.35,7.15-44.77,31.06-44.79,58.15c0,16.13,6.27,31.3,17.67,42.7c11.4,11.41,26.56,17.69,42.69,17.69s31.29-6.28,42.69-17.69
		c0.88-0.88,1.71-1.76,2.47-2.62l0.04-0.04c0.05-0.05,0.12-0.13,0.18-0.21l0.29-0.32l0,0l50.33-56.82h-1.4L257.27,319.17z"/>
	<path class="st0" d="M197.31,225.18l-0.02-0.39l-0.26,0.07c-24.89,7.01-42.28,29.81-42.29,55.43
		c-0.01,15.41,5.99,29.91,16.89,40.82c10.89,10.9,25.38,16.9,40.8,16.9c15.41,0,29.91-6.01,40.81-16.91
		c0.86-0.86,1.65-1.7,2.35-2.49c0.08-0.09,0.39-0.44,0.46-0.52l48.8-55.1h-1.39l-48.17,54.4l-0.04,0.05
		c-0.07,0.08-0.37,0.42-0.44,0.5c-0.72,0.81-1.49,1.63-2.3,2.44c-10.7,10.71-24.93,16.6-40.07,16.6c-15.14,0-29.37-5.9-40.07-16.6
		c-10.7-10.71-16.6-24.94-16.59-40.08c0.01-25.11,17.04-47.48,41.41-54.39l0.18-0.05l-0.02-0.18
		C197.32,225.51,197.32,225.35,197.31,225.18z"/>
	<path class="st0" d="M168.79,246.99c-7.45,9.65-11.39,21.16-11.39,33.31c-0.01,14.7,5.71,28.53,16.11,38.93
		c10.39,10.4,24.21,16.12,38.92,16.12c14.71,0,28.53-5.73,38.92-16.12c0.74-0.74,1.49-1.53,2.22-2.35c0.05-0.05,0.15-0.16,0.24-0.27
		l47.48-53.62h-1.39l-46.63,52.66l-0.3,0.33c-0.06,0.07-0.12,0.14-0.17,0.18c-0.73,0.82-1.46,1.6-2.19,2.32
		c-10.19,10.2-23.75,15.82-38.2,15.82c-14.41,0-27.97-5.62-38.17-15.82c-10.2-10.2-15.81-23.77-15.8-38.19
		c0-11.91,3.87-23.2,11.18-32.67c7-9.06,16.9-15.82,27.88-19.04l0.18-0.05l-0.03-0.19c-0.03-0.2-0.06-0.4-0.08-0.6l-0.03-0.26
		l-0.25,0.07C186.07,230.83,175.95,237.73,168.79,246.99z"/>
	<path class="st0" d="M170.8,248.76c-7.01,9.15-10.73,20.05-10.73,31.54c0,13.99,5.44,27.15,15.33,37.04
		c9.89,9.9,23.04,15.34,37.03,15.34c13.99,0,27.14-5.45,37.03-15.34c0.74-0.74,1.45-1.5,2.11-2.24c0.11-0.12,0.36-0.41,0.48-0.54
		l45.67-51.57h-1.39l-45.08,50.9c-0.08,0.1-0.26,0.29-0.38,0.42l-0.08,0.09c-0.65,0.73-1.34,1.47-2.07,2.2
		c-9.69,9.7-22.58,15.04-36.3,15.04c-13.71,0-26.6-5.34-36.29-15.04c-9.69-9.7-15.03-22.6-15.03-36.31
		c0.01-11.26,3.65-21.94,10.52-30.91c6.58-8.58,15.91-15.03,26.27-18.14l0.19-0.06l-0.03-0.19c-0.02-0.1-0.04-0.2-0.06-0.3
		c-0.02-0.1-0.04-0.2-0.05-0.3l-0.04-0.25l-0.24,0.07C187.06,233.41,177.53,239.99,170.8,248.76z"/>
	<path class="st0" d="M172.84,250.48c-6.61,8.66-10.1,18.97-10.1,29.82c0,13.28,5.16,25.76,14.55,35.16
		c9.39,9.39,21.87,14.56,35.14,14.56c13.28,0,25.76-5.17,35.14-14.56c0.66-0.65,1.33-1.36,1.99-2.1c0.14-0.14,0.36-0.4,0.47-0.53
		l44.14-49.83h-1.39l-43.51,49.13l-0.1,0.12c-0.12,0.13-0.26,0.3-0.37,0.41c-0.67,0.76-1.33,1.45-1.95,2.07
		c-9.19,9.19-21.41,14.26-34.41,14.26c-13,0-25.22-5.06-34.41-14.25c-9.19-9.19-14.25-21.42-14.24-34.42
		c0-10.61,3.42-20.71,9.89-29.19c6.18-8.1,14.96-14.22,24.73-17.23l0.19-0.06l-0.04-0.2c-0.04-0.19-0.08-0.39-0.12-0.58l-0.05-0.24
		l-0.24,0.07C188.15,235.93,179.16,242.19,172.84,250.48z"/>
	<path class="st0" d="M174.91,252.16c-6.21,8.18-9.5,17.91-9.51,28.15c0,12.56,4.89,24.37,13.77,33.26
		c8.88,8.89,20.68,13.78,33.26,13.78c12.57,0,24.38-4.89,33.26-13.78c0.6-0.6,1.23-1.27,1.87-1.98c0.09-0.1,0.21-0.23,0.31-0.36
		l0.31-0.35l0,0l42.42-47.89h-1.39l-41.78,47.18l-0.01-0.01l-0.12,0.15l-0.04,0.04l-0.19,0.15l0.03,0.03
		c-0.1,0.12-0.21,0.25-0.3,0.35c-0.64,0.7-1.25,1.36-1.84,1.94c-8.68,8.69-20.23,13.47-32.54,13.47c-12.28,0-23.82-4.78-32.5-13.47
		c-8.69-8.69-13.47-20.24-13.47-32.53c0.01-10,3.22-19.52,9.3-27.52c5.81-7.64,14.07-13.43,23.26-16.31l0.2-0.06l-0.26-1.01
		l-0.22,0.07C189.31,238.41,180.85,244.33,174.91,252.16z"/>
	<g>
		<path class="st2" d="M222.51,169.77c-11.86,10.07-19.78,23.96-22.31,39.13c-0.3,1.78-0.53,3.64-0.68,5.52
			c-0.14,1.73-0.21,3.48-0.21,5.21v0.07c0,1.73,0.07,3.48,0.21,5.21c0.15,1.88,0.38,3.74,0.68,5.52
			c2.53,15.17,10.45,29.07,22.31,39.13c11.98,10.18,27.26,15.79,43.03,15.79h0.88l0.92-1.04h-1.8c-15.51,0-30.56-5.52-42.35-15.54
			c-11.67-9.92-19.47-23.59-21.96-38.51c-0.3-1.84-0.53-3.67-0.67-5.44c-0.14-1.65-0.21-3.38-0.21-5.13v-0.07
			c0-1.75,0.07-3.47,0.21-5.13c0.14-1.77,0.37-3.6,0.67-5.44c2.49-14.92,10.29-28.6,21.96-38.51c11.8-10.02,26.84-15.54,42.35-15.54
			h87.13l0.92-1.04h-88.04C249.76,153.98,234.48,159.59,222.51,169.77z"/>
		<path class="st2" d="M224.24,171.8c-11.38,9.67-18.98,23-21.41,37.55c-0.29,1.75-0.51,3.53-0.65,5.3c-0.13,1.63-0.2,3.32-0.2,5.01
			v0.06c0,1.69,0.07,3.37,0.2,5c0.14,1.77,0.36,3.55,0.65,5.3c2.43,14.55,10.03,27.88,21.41,37.55
			c11.51,9.77,26.17,15.15,41.3,15.15h3.24l0.91-1.04h-4.15c-14.87,0-29.3-5.3-40.62-14.91c-11.19-9.5-18.67-22.61-21.06-36.92
			c-0.28-1.68-0.5-3.43-0.64-5.21c-0.13-1.61-0.2-3.26-0.2-4.92v-0.06c0-1.66,0.07-3.31,0.2-4.92c0.14-1.78,0.36-3.53,0.64-5.21
			c2.39-14.31,9.87-27.42,21.06-36.92c11.32-9.62,25.75-14.91,40.62-14.91h84.76l0.93-1.04h-85.69
			C250.41,156.65,235.74,162.03,224.24,171.8z"/>
		<path class="st2" d="M225.97,173.82c-10.9,9.26-18.19,22.03-20.52,35.96c-0.28,1.69-0.5,3.4-0.63,5.08
			c-0.13,1.67-0.19,3.28-0.19,4.79v0.06c0,1.51,0.07,3.12,0.19,4.79c0.13,1.68,0.34,3.39,0.63,5.08
			c2.33,13.93,9.62,26.69,20.52,35.96c11.02,9.35,25.07,14.51,39.56,14.51h5.6l0.92-1.04h-6.52c-14.25,0-28.06-5.06-38.89-14.26
			c-10.71-9.1-17.87-21.65-20.16-35.33c-0.27-1.64-0.48-3.32-0.61-4.99c-0.13-1.57-0.19-3.15-0.19-4.71v-0.06
			c0-1.56,0.06-3.14,0.19-4.71c0.13-1.67,0.34-3.35,0.61-4.99c2.29-13.69,9.45-26.24,20.16-35.33c10.83-9.2,24.64-14.26,38.89-14.26
			h82.4l0.93-1.04h-83.33C251.04,159.32,236.99,164.47,225.97,173.82z"/>
		<path class="st2" d="M227.71,175.85c-10.42,8.85-17.39,21.05-19.62,34.36c-0.27,1.6-0.47,3.23-0.6,4.85
			c-0.12,1.5-0.18,3.04-0.18,4.58v0.06c0,1.54,0.06,3.08,0.18,4.58c0.13,1.62,0.33,3.25,0.6,4.85c2.23,13.31,9.19,25.52,19.62,34.37
			c10.54,8.94,23.97,13.87,37.83,13.87h7.97l0.92-1.04h-8.88c-13.61,0-26.8-4.84-37.15-13.62c-10.24-8.69-17.08-20.67-19.26-33.74
			c-0.27-1.57-0.47-3.17-0.59-4.77c-0.12-1.42-0.18-2.93-0.18-4.5v-0.06c0-1.56,0.06-3.08,0.18-4.5c0.13-1.6,0.33-3.2,0.59-4.77
			c2.19-13.07,9.03-25.06,19.26-33.74c10.35-8.78,23.54-13.62,37.15-13.62h80.03l0.93-1.04h-80.96
			C251.68,161.98,238.25,166.91,227.71,175.85z"/>
		<path class="st2" d="M229.44,177.88c-9.95,8.44-16.6,20.08-18.72,32.77c-0.25,1.45-0.45,3-0.58,4.63
			c-0.11,1.41-0.17,2.88-0.17,4.37v0.06c0,1.49,0.06,2.96,0.17,4.37c0.13,1.63,0.33,3.18,0.58,4.63
			c2.12,12.7,8.77,24.34,18.72,32.77c10.05,8.53,22.87,13.23,36.09,13.23h10.33l0.92-1.04h-11.24c-12.97,0-25.55-4.61-35.42-12.98
			c-9.76-8.27-16.28-19.69-18.37-32.15c-0.26-1.54-0.45-3.07-0.56-4.54c-0.11-1.38-0.17-2.82-0.17-4.28v-0.06
			c0-1.46,0.06-2.91,0.17-4.28c0.12-1.47,0.31-3,0.56-4.54c2.09-12.46,8.61-23.88,18.37-32.15c9.86-8.37,22.44-12.98,35.42-12.98
			h77.68l0.92-1.04h-78.6C252.31,164.65,239.49,169.35,229.44,177.88z"/>
		<path class="st2" d="M231.17,179.9c-9.47,8.03-15.8,19.11-17.82,31.19c-0.24,1.44-0.43,2.93-0.54,4.4
			c-0.11,1.34-0.17,2.73-0.17,4.16v0.06c0,1.42,0.06,2.82,0.17,4.15c0.12,1.48,0.3,2.96,0.54,4.41
			c2.02,12.08,8.35,23.16,17.82,31.19c9.57,8.12,21.78,12.59,34.36,12.59h12.69l0.92-1.04h-13.61c-12.34,0-24.3-4.38-33.68-12.34
			c-9.28-7.87-15.49-18.72-17.46-30.56c-0.24-1.43-0.42-2.88-0.54-4.32c-0.11-1.34-0.16-2.71-0.16-4.07v-0.06
			c0-1.37,0.05-2.73,0.16-4.07c0.11-1.44,0.3-2.89,0.54-4.32c1.98-11.84,8.18-22.69,17.46-30.56c9.38-7.96,21.34-12.34,33.68-12.34
			h75.31l0.93-1.04h-76.24C252.95,167.32,240.75,171.79,231.17,179.9z"/>
		<path class="st2" d="M232.91,181.93c-8.99,7.62-15,18.13-16.92,29.59c-0.23,1.31-0.4,2.71-0.52,4.19
			c-0.11,1.32-0.16,2.64-0.16,3.94v0.06c0,1.3,0.05,2.62,0.16,3.94c0.12,1.47,0.3,2.88,0.52,4.19c1.92,11.46,7.92,21.97,16.92,29.59
			c9.09,7.7,20.68,11.94,32.63,11.94h15.05l0.92-1.04h-15.97c-11.71,0-23.05-4.15-31.95-11.69c-8.81-7.46-14.69-17.75-16.57-28.97
			c-0.23-1.32-0.4-2.7-0.51-4.09c-0.1-1.29-0.16-2.59-0.16-3.86v-0.06c0-1.27,0.05-2.57,0.16-3.86c0.11-1.39,0.28-2.76,0.51-4.09
			c1.87-11.23,7.76-21.51,16.56-28.97c8.9-7.54,20.25-11.69,31.95-11.69h72.95l0.92-1.04h-73.87
			C253.58,169.99,242,174.23,232.91,181.93z"/>
		<path class="st2" d="M234.64,183.95c-8.51,7.21-14.2,17.15-16.02,28c-0.23,1.36-0.39,2.69-0.49,3.96
			c-0.1,1.16-0.15,2.42-0.15,3.79c0,1.33,0.05,2.59,0.15,3.74c0.1,1.27,0.27,2.6,0.49,3.96c1.82,10.85,7.51,20.8,16.02,28
			c8.61,7.29,19.58,11.3,30.89,11.3h17.42l0.92-1.04h-18.33c-11.06,0-21.79-3.93-30.22-11.05c-8.33-7.05-13.89-16.78-15.67-27.38
			c-0.21-1.23-0.37-2.53-0.48-3.87c-0.1-1.18-0.15-2.41-0.15-3.71c0-1.25,0.05-2.48,0.15-3.66c0.11-1.33,0.27-2.64,0.48-3.87
			c1.78-10.61,7.34-20.33,15.67-27.38c8.42-7.13,19.15-11.05,30.22-11.05h70.59l0.93-1.04h-71.52
			C254.22,172.65,243.25,176.66,234.64,183.95z"/>
		<path class="st2" d="M265.53,151.31c-17.41,0-34.04,6.49-46.84,18.27c-12.66,11.66-20.41,27.44-21.83,44.42l-0.02,0.21
			c-0.01,0.14-0.02,0.27-0.02,0.41c-0.06,0.69-0.1,1.4-0.13,2.18c-0.01,0.21-0.02,0.42-0.03,0.63c-0.02,0.72-0.04,1.45-0.04,2.16
			v0.16c0,0.72,0.01,1.45,0.04,2.16c0.01,0.21,0.01,0.42,0.02,0.62c0.03,0.78,0.08,1.5,0.13,2.2c0.01,0.14,0.01,0.27,0.02,0.4
			l0.02,0.21c1.41,16.99,9.17,32.76,21.83,44.42c12.5,11.51,28.75,18,45.75,18.26l0.12,0l0.74-1.04l-0.42,0
			c-16.9-0.16-33.04-6.55-45.47-17.99c-12.53-11.54-20.17-27.15-21.51-43.95l-0.02-0.29c-0.13-1.61-0.19-3.31-0.19-5.06v-0.07
			c0-1.75,0.06-3.45,0.19-5.06l0.02-0.28c1.34-16.8,8.98-32.41,21.51-43.95c12.61-11.61,28.99-18,46.13-18h89.49l0.92-1.04H265.53z"
			/>
		<path class="st2" d="M236.37,185.98c-7.95,6.74-13.31,16.01-15.07,26.12c-0.02,0.1-0.04,0.21-0.05,0.3
			c-0.4,2.39-0.61,4.84-0.61,7.32c0,2.43,0.21,4.87,0.61,7.26c0.01,0.09,0.03,0.2,0.05,0.3c1.77,10.11,7.12,19.38,15.07,26.12
			c8.13,6.87,18.48,10.65,29.16,10.65h19.77l0.92-1.04l-20.69,0c-10.44,0-20.55-3.7-28.48-10.41c-7.75-6.56-12.97-15.6-14.71-25.45
			l-0.1-0.59c-0.12-0.7-0.21-1.4-0.28-2.06c-0.02-0.2-0.04-0.4-0.06-0.6c-0.07-0.61-0.12-1.28-0.16-2.06
			c-0.01-0.2-0.02-0.4-0.02-0.59c-0.03-0.56-0.03-1.11-0.03-1.56v-0.02c0-0.42,0-0.97,0.03-1.54c0.01-0.19,0.01-0.39,0.02-0.59
			c0.04-0.77,0.09-1.45,0.16-2.06c0.02-0.2,0.04-0.4,0.06-0.6c0.07-0.66,0.17-1.35,0.28-2.06l0.1-0.59
			c1.73-9.85,6.96-18.89,14.71-25.45c7.93-6.71,18.05-10.41,28.48-10.41h68.23l0.92-1.04h-69.14
			C254.86,175.32,244.5,179.11,236.37,185.98z"/>
	</g>
	<path class="st0" d="M285.64,262.99l-40.39,45.6c-0.69,0.79-1.42,1.58-2.19,2.35c-8.18,8.19-19.06,12.69-30.63,12.69
		c-11.57,0-22.45-4.51-30.63-12.69c-8.18-8.19-12.69-19.07-12.68-30.64c0-9.4,3.02-18.35,8.73-25.88
		c5.41-7.13,13.09-12.56,21.63-15.31l-0.29-1c-8.77,2.82-16.64,8.38-22.17,15.69c-5.85,7.71-8.94,16.87-8.94,26.51
		c0,11.85,4.61,23,12.99,31.38c8.38,8.38,19.52,13,31.37,13s22.99-4.62,31.37-13c0.74-0.73,1.48-1.53,2.25-2.42l40.98-46.27H285.64z
		"/>
</g>
</svg>
